<svg version="1.0" xmlns="http://www.w3.org/2000/svg" width="450.000000pt" height="240.000000pt" viewBox="0 0 450.000000 240.000000" preserveAspectRatio="xMidYMid meet">
  <g transform="translate(0.000000,240.000000) scale(0.100000,-0.100000)" fill="#FFFFFF" stroke="none">
    <path d="M1860 1802 c-58 -8 -114 -18 -125 -22 -11 -5 -33 -11 -50 -15 -70 -14 -105 -40 -89 -66 8 -14 52 -11 87 5 30 14 103 36 119 36 29 0 76 -186 99 -385 5 -49 14 -119 20 -155 5 -36 11 -85 12 -110 l2 -45 -50 -3 c-27 -2 -54 -7 -60 -11 -5 -5 -26 -12 -45 -16 -19 -4 -63 -20 -97 -37 -79 -37 -108 -33 -143 23 -29 48 -74 85 -150 126 -94 50 -169 70 -380 99 -315 43 -367 54 -412 85 -32 23 -35 43 -11 96 59 131 199 244 373 299 63 20 289 25 312 7 7 -6 29 -14 48 -18 36 -8 95 -41 123 -70 35 -34 8 -151 -38 -169 -20 -7 -19 -55 1 -63 26 -10 105 93 118 155 15 66 -68 165 -158 188 -14 3 -28 10 -31 14 -3 5 -31 11 -63 15 -31 3 -75 11 -98 16 -31 8 -65 7 -145 -6 -57 -10 -108 -21 -114 -26 -5 -5 -16 -9 -25 -9 -35 -1 -239 -127 -240 -149 0 -3 -16 -23 -35 -44 -54 -60 -98 -161 -92 -208 7 -51 17 -63 81 -93 53 -25 109 -37 296 -61 230 -30 276 -37 295 -45 11 -5 36 -12 55 -16 19 -3 41 -10 50 -14 121 -57 116 -54 177 -106 24 -20 40 -40 37 -45 -3 -5 -72 -9 -154 -9 -83 0 -169 -4 -192 -10 -24 -5 -74 -13 -113 -19 -92 -12 -178 -31 -190 -41 -5 -4 -21 -11 -35 -15 -79 -25 -150 -105 -150 -170 0 -70 67 -143 165 -181 41 -16 76 -19 196 -19 93 0 151 4 160 11 8 6 31 14 51 18 20 4 50 13 65 21 15 8 34 15 41 15 6 0 12 4 12 9 0 5 11 12 26 15 37 10 150 127 159 165 3 17 11 33 16 36 5 4 9 35 9 71 0 50 3 64 15 64 8 0 15 -8 15 -19 0 -21 36 -71 52 -71 5 0 24 -7 41 -15 32 -14 139 -34 235 -42 49 -5 52 -6 52 -33 0 -37 25 -59 46 -39 12 12 12 21 3 48 -14 39 -3 51 48 51 17 0 35 5 38 10 3 6 14 10 23 10 9 1 35 9 57 20 22 11 43 19 48 20 4 0 26 12 48 26 36 22 49 25 98 20 31 -3 187 -10 346 -16 160 -6 317 -15 350 -21 33 -6 170 -13 304 -15 134 -2 245 -5 247 -7 2 -2 -5 -29 -16 -60 -27 -77 -26 -105 4 -113 14 -3 29 -3 34 0 5 3 24 52 42 108 17 57 36 117 42 133 5 17 13 44 18 60 5 17 13 44 18 60 16 45 34 126 39 165 2 19 10 49 18 65 7 17 20 55 30 85 9 30 23 69 30 85 7 17 20 47 29 68 33 77 12 137 -47 137 -19 0 -27 -5 -27 -18 0 -10 -6 -38 -14 -63 -7 -24 -21 -71 -31 -104 -10 -33 -23 -76 -30 -95 -7 -19 -20 -62 -30 -95 -9 -33 -23 -78 -31 -100 -8 -23 -14 -51 -14 -63 0 -13 -5 -32 -11 -43 -5 -11 -14 -45 -19 -76 -12 -71 -33 -105 -63 -98 -12 2 -119 9 -237 15 -238 12 -247 14 -283 83 -24 46 -17 59 26 45 30 -9 115 -26 252 -48 33 -6 67 -13 75 -16 8 -3 44 -12 80 -20 56 -12 66 -12 79 1 10 9 12 18 6 24 -22 19 -216 65 -344 81 -47 5 -89 14 -95 20 -7 7 43 62 152 169 89 87 162 166 162 174 0 24 -27 28 -73 11 -23 -9 -53 -18 -67 -21 -14 -3 -30 -10 -36 -14 -6 -5 -31 -12 -55 -15 -34 -5 -48 -2 -58 10 -7 9 -24 16 -37 16 -30 0 -32 -34 -5 -67 23 -27 65 -30 107 -8 16 8 37 15 46 15 9 0 20 5 23 10 3 6 15 10 26 10 13 0 -23 -42 -119 -137 -76 -76 -146 -149 -156 -163 -14 -21 -18 -23 -26 -10 -5 8 -10 25 -10 36 0 12 -7 35 -15 50 -19 36 -19 64 -1 90 21 29 31 116 17 143 -34 62 -87 -11 -79 -109 5 -59 1 -72 -51 -138 -24 -31 -39 -42 -55 -40 -18 3 -21 11 -24 53 -4 65 31 156 81 208 35 38 50 87 27 87 -6 0 -28 -16 -50 -36 -42 -39 -79 -108 -106 -196 -15 -54 -15 -60 1 -100 20 -52 42 -78 66 -78 21 0 69 20 69 29 1 3 11 19 25 35 20 25 26 28 39 17 9 -7 19 -29 22 -50 4 -20 18 -53 31 -73 12 -21 23 -42 23 -47 0 -12 -342 -4 -413 10 -26 5 -88 9 -137 9 -49 0 -91 4 -94 9 -4 5 9 19 28 30 29 18 100 90 131 133 45 62 70 173 60 270 -5 58 -4 68 9 68 9 0 44 17 79 39 35 21 73 41 85 45 27 9 39 44 20 63 -13 12 -25 7 -94 -39 -43 -29 -85 -59 -92 -65 -21 -20 -39 -15 -46 13 -4 14 -11 31 -17 37 -5 7 -23 31 -39 54 -17 24 -49 56 -73 73 -23 16 -47 33 -52 37 -49 37 -154 69 -280 87 -127 18 -143 18 -285 -2z m255 -52 c119 -15 171 -27 232 -56 111 -52 165 -103 215 -204 30 -58 33 -74 33 -150 0 -73 -4 -93 -28 -143 -34 -68 -98 -141 -179 -202 l-58 -44 -163 6 c-133 4 -164 8 -175 22 -10 13 -10 18 3 27 19 14 19 38 0 54 -10 8 -15 32 -16 74 -1 154 -48 444 -90 555 -16 43 -17 56 -7 62 17 11 143 10 233 -1z m-177 -768 c2 -12 0 -22 -5 -22 -4 -1 -40 -3 -80 -6 -78 -5 -109 10 -42 21 22 4 53 13 67 21 36 19 56 14 60 -14z m18 -77 c3 -8 7 -29 8 -47 l1 -33 -55 3 c-72 4 -221 40 -239 57 -29 28 -1 35 140 35 114 0 141 -3 145 -15z m275 0 c0 -5 -8 -11 -18 -13 -10 -2 -32 -10 -50 -18 -17 -8 -38 -14 -46 -14 -8 0 -28 -7 -43 -15 -16 -8 -34 -15 -41 -15 -16 0 -33 33 -33 65 l0 26 115 -3 c68 -2 115 -7 116 -13z m-691 -34 c0 -22 -4 -42 -9 -45 -4 -3 -11 -19 -14 -35 -9 -45 -113 -145 -183 -176 -32 -14 -68 -30 -79 -35 -71 -33 -280 -45 -363 -22 -52 15 -115 53 -136 84 -28 39 -20 80 22 119 37 36 97 69 124 69 8 0 18 4 24 9 12 13 117 30 244 42 58 5 128 14 155 18 28 5 87 9 133 10 l82 1 0 -39z"/>
    <path d="M340 1445 c-7 -8 -18 -15 -24 -15 -22 0 -236 -210 -236 -231 0 -11 26 -55 58 -97 31 -42 65 -93 76 -112 48 -91 81 -130 108 -130 55 0 54 47 -2 135 -10 17 -29 49 -41 73 -13 23 -31 50 -41 59 -10 9 -18 20 -18 25 0 14 65 75 99 92 17 9 31 21 31 26 0 6 5 10 11 10 20 0 77 51 89 79 13 32 2 64 -29 88 -22 17 -66 16 -81 -2z"/>
    <path d="M3953 1438 c-63 -44 -38 -103 73 -174 52 -33 124 -100 124 -114 0 -5 -11 -18 -25 -31 -13 -13 -25 -27 -25 -32 0 -4 -12 -26 -27 -50 -80 -126 -90 -177 -33 -177 34 0 70 40 115 126 16 31 54 89 82 127 29 39 53 78 53 87 0 34 -258 260 -297 260 -4 0 -23 -10 -40 -22z"/>
    <path d="M2715 1428 c-2 -7 -6 -38 -8 -68 -2 -30 -10 -95 -17 -145 -17 -127 -11 -214 18 -243 23 -23 62 -27 69 -6 2 6 -11 28 -28 50 -31 38 -31 41 -25 116 4 43 11 89 16 102 5 14 10 64 12 113 3 77 1 88 -15 91 -9 2 -19 -2 -22 -10z"/>
  </g>
</svg>
